<?xml version="1.0" encoding="UTF-8" standalone="no"?>
<!-- Created with Inkscape (http://www.inkscape.org/) -->

<svg
   version="1.1"
   id="svg1"
   width="88.067268"
   height="93.147499"
   viewBox="0 0 88.067269 93.147499"
   xmlns="http://www.w3.org/2000/svg"
   xmlns:svg="http://www.w3.org/2000/svg">
  <defs
     id="defs1" />
  <g
     id="g1"
     transform="translate(-26.856308,-239.62562)">
    <path
       id="path1"
       style="fill:#a4aef0;fill-opacity:0.972549;stroke:#576ccc;stroke-opacity:1"
       d="m 48.174048,329.86334 c 0.91772,-7.50873 -1.3211,-14.96324 -2.36481,-22.35407 -3.46475,-18.08001 -6.76372,-36.20328 -10.8335,-54.15847 -0.24575,-4.87222 -3.84325,-7.39195 -7.43376,-9.79598 -1.53955,-4.87254 6.92628,-2.80739 9.87964,-3.41163 5.19159,0.22648 10.61911,-0.57229 15.64431,0.96328 1.99555,3.58192 -5.28894,4.76468 -3.16388,8.95583 2.47013,17.19972 6.06443,34.23977 10.24689,51.10081 0.41594,2.65617 2.06087,6.75146 2.52783,1.72354 2.55398,-12.43333 5.01002,-24.95257 5.98763,-37.62315 0.30903,-5.2266 -0.80185,-11.51518 -5.98293,-14.07569 -4.08746,-1.13526 -4.89594,-5.35891 0.21645,-5.15865 7.04186,-0.73726 14.22668,-0.88286 21.26008,-0.0203 5.5072,1.47917 0.13314,5.35973 -1.03719,7.95405 -0.40154,5.42835 1.12004,10.8438 1.79561,16.22518 2.08251,11.90825 4.02491,23.87432 7.07387,35.57985 1.37592,1.29731 1.73051,-5.19866 2.4473,-6.8483 2.80216,-13.8574 5.840652,-27.73818 7.073532,-41.84249 2.09794,-5.16954 -5.057622,-6.01523 -5.016102,-10.16973 4.153402,-2.39383 9.426982,-1.63303 14.020562,-1.16147 5.92179,-0.10077 3.52957,6.18516 2.88092,9.80386 -4.27224,20.61968 -9.58072,41.02767 -15.498893,61.22646 -1.007559,4.7498 -5.346859,7.40809 -9.664579,8.68926 -4.67789,2.54962 -8.461195,-4.02512 -8.557825,-9.00033 -3.159881,-17.79279 -1.603631,-10.90093 -4.012097,-20.5284 -1.799308,-7.19245 -4.747518,6.78064 -5.984908,11.0584 -1.56606,5.84361 -2.4732,11.85876 -4.0626,17.68135 -2.14884,3.90416 -6.88145,5.35614 -10.80235,6.84759 -1.99849,0.53798 -6.99663,2.0107 -6.6392,-1.66083 z" />
  </g>
</svg>
